<mxfile host="app.diagrams.net" modified="2023-10-23T16:11:55.146Z" agent="Mozilla/5.0 (Windows NT 10.0; Win64; x64) AppleWebKit/537.36 (KHTML, like Gecko) Chrome/118.0.0.0 Safari/537.36" etag="PNGOcmmuCrYZCxoUjSO6" version="22.0.6" type="device">
  <diagram id="R2lEEEUBdFMjLlhIrx00" name="Page-1">
    <mxGraphModel dx="1290" dy="597" grid="1" gridSize="10" guides="1" tooltips="1" connect="1" arrows="1" fold="1" page="1" pageScale="1" pageWidth="850" pageHeight="1100" math="0" shadow="0" extFonts="Permanent Marker^https://fonts.googleapis.com/css?family=Permanent+Marker">
      <root>
        <mxCell id="0" />
        <mxCell id="1" parent="0" />
        <mxCell id="QYia8BqHug6JZ5yJNUc--1" value="CD" style="rounded=1;arcSize=10;whiteSpace=wrap;html=1;align=center;" parent="1" vertex="1">
          <mxGeometry x="555" y="390" width="100" height="40" as="geometry" />
        </mxCell>
        <mxCell id="QYia8BqHug6JZ5yJNUc--2" value="Cliente" style="rounded=1;arcSize=10;whiteSpace=wrap;html=1;align=center;" parent="1" vertex="1">
          <mxGeometry x="155" y="390" width="100" height="40" as="geometry" />
        </mxCell>
        <mxCell id="QYia8BqHug6JZ5yJNUc--3" value="Alquila" style="shape=rhombus;perimeter=rhombusPerimeter;whiteSpace=wrap;html=1;align=center;" parent="1" vertex="1">
          <mxGeometry x="345" y="380" width="120" height="60" as="geometry" />
        </mxCell>
        <mxCell id="QYia8BqHug6JZ5yJNUc--4" value="" style="endArrow=none;html=1;rounded=0;entryX=0;entryY=0.5;entryDx=0;entryDy=0;exitX=1;exitY=0.5;exitDx=0;exitDy=0;" parent="1" source="QYia8BqHug6JZ5yJNUc--2" target="QYia8BqHug6JZ5yJNUc--3" edge="1">
          <mxGeometry width="50" height="50" relative="1" as="geometry">
            <mxPoint x="415" y="600" as="sourcePoint" />
            <mxPoint x="465" y="550" as="targetPoint" />
          </mxGeometry>
        </mxCell>
        <mxCell id="QYia8BqHug6JZ5yJNUc--5" value="" style="endArrow=none;html=1;rounded=0;entryX=0;entryY=0.5;entryDx=0;entryDy=0;exitX=1;exitY=0.5;exitDx=0;exitDy=0;" parent="1" edge="1">
          <mxGeometry width="50" height="50" relative="1" as="geometry">
            <mxPoint x="465" y="409.5" as="sourcePoint" />
            <mxPoint x="555" y="409.5" as="targetPoint" />
          </mxGeometry>
        </mxCell>
        <mxCell id="QYia8BqHug6JZ5yJNUc--6" value="Nombre" style="ellipse;whiteSpace=wrap;html=1;align=center;" parent="1" vertex="1">
          <mxGeometry x="545" y="300" width="100" height="40" as="geometry" />
        </mxCell>
        <mxCell id="QYia8BqHug6JZ5yJNUc--7" value="Artista" style="ellipse;whiteSpace=wrap;html=1;align=center;" parent="1" vertex="1">
          <mxGeometry x="665" y="320" width="100" height="40" as="geometry" />
        </mxCell>
        <mxCell id="QYia8BqHug6JZ5yJNUc--8" value="Año de edición" style="ellipse;whiteSpace=wrap;html=1;align=center;" parent="1" vertex="1">
          <mxGeometry x="695" y="380" width="100" height="40" as="geometry" />
        </mxCell>
        <mxCell id="QYia8BqHug6JZ5yJNUc--10" value="Disponibilidad" style="ellipse;whiteSpace=wrap;html=1;align=center;" parent="1" vertex="1">
          <mxGeometry x="480" y="470" width="100" height="40" as="geometry" />
        </mxCell>
        <mxCell id="QYia8BqHug6JZ5yJNUc--12" value="Código" style="ellipse;whiteSpace=wrap;html=1;align=center;fontStyle=4;" parent="1" vertex="1">
          <mxGeometry x="725" y="440" width="100" height="40" as="geometry" />
        </mxCell>
        <mxCell id="QYia8BqHug6JZ5yJNUc--13" value="Enumeración" style="ellipse;whiteSpace=wrap;html=1;align=center;fontStyle=4;" parent="1" vertex="1">
          <mxGeometry x="625" y="470" width="100" height="40" as="geometry" />
        </mxCell>
        <mxCell id="QYia8BqHug6JZ5yJNUc--15" value="" style="endArrow=none;html=1;rounded=0;entryX=0.5;entryY=1;entryDx=0;entryDy=0;exitX=0.5;exitY=0;exitDx=0;exitDy=0;" parent="1" source="QYia8BqHug6JZ5yJNUc--1" target="QYia8BqHug6JZ5yJNUc--6" edge="1">
          <mxGeometry width="50" height="50" relative="1" as="geometry">
            <mxPoint x="415" y="600" as="sourcePoint" />
            <mxPoint x="465" y="550" as="targetPoint" />
          </mxGeometry>
        </mxCell>
        <mxCell id="QYia8BqHug6JZ5yJNUc--16" value="" style="endArrow=none;html=1;rounded=0;entryX=0;entryY=1;entryDx=0;entryDy=0;" parent="1" target="QYia8BqHug6JZ5yJNUc--7" edge="1">
          <mxGeometry width="50" height="50" relative="1" as="geometry">
            <mxPoint x="635" y="390" as="sourcePoint" />
            <mxPoint x="605" y="350" as="targetPoint" />
          </mxGeometry>
        </mxCell>
        <mxCell id="QYia8BqHug6JZ5yJNUc--17" value="" style="endArrow=none;html=1;rounded=0;entryX=0;entryY=0.5;entryDx=0;entryDy=0;exitX=1;exitY=0.5;exitDx=0;exitDy=0;" parent="1" source="QYia8BqHug6JZ5yJNUc--1" target="QYia8BqHug6JZ5yJNUc--8" edge="1">
          <mxGeometry width="50" height="50" relative="1" as="geometry">
            <mxPoint x="625" y="410" as="sourcePoint" />
            <mxPoint x="615" y="360" as="targetPoint" />
          </mxGeometry>
        </mxCell>
        <mxCell id="QYia8BqHug6JZ5yJNUc--18" value="" style="endArrow=none;html=1;rounded=0;entryX=0;entryY=0.5;entryDx=0;entryDy=0;exitX=1;exitY=1;exitDx=0;exitDy=0;" parent="1" source="QYia8BqHug6JZ5yJNUc--1" target="QYia8BqHug6JZ5yJNUc--12" edge="1">
          <mxGeometry width="50" height="50" relative="1" as="geometry">
            <mxPoint x="635" y="420" as="sourcePoint" />
            <mxPoint x="625" y="370" as="targetPoint" />
          </mxGeometry>
        </mxCell>
        <mxCell id="QYia8BqHug6JZ5yJNUc--19" value="" style="endArrow=none;html=1;rounded=0;entryX=0.44;entryY=0.04;entryDx=0;entryDy=0;exitX=0.75;exitY=1;exitDx=0;exitDy=0;entryPerimeter=0;" parent="1" source="QYia8BqHug6JZ5yJNUc--1" target="QYia8BqHug6JZ5yJNUc--13" edge="1">
          <mxGeometry width="50" height="50" relative="1" as="geometry">
            <mxPoint x="645" y="430" as="sourcePoint" />
            <mxPoint x="635" y="380" as="targetPoint" />
          </mxGeometry>
        </mxCell>
        <mxCell id="QYia8BqHug6JZ5yJNUc--20" value="" style="endArrow=none;html=1;rounded=0;exitX=0.5;exitY=0;exitDx=0;exitDy=0;" parent="1" source="QYia8BqHug6JZ5yJNUc--10" edge="1">
          <mxGeometry width="50" height="50" relative="1" as="geometry">
            <mxPoint x="655" y="440" as="sourcePoint" />
            <mxPoint x="595" y="430" as="targetPoint" />
          </mxGeometry>
        </mxCell>
        <mxCell id="QYia8BqHug6JZ5yJNUc--27" value="Nombre" style="ellipse;whiteSpace=wrap;html=1;align=center;" parent="1" vertex="1">
          <mxGeometry x="215" y="290" width="100" height="40" as="geometry" />
        </mxCell>
        <mxCell id="QYia8BqHug6JZ5yJNUc--28" value="Nº Socio" style="ellipse;whiteSpace=wrap;html=1;align=center;fontStyle=4;" parent="1" vertex="1">
          <mxGeometry x="105" y="290" width="100" height="40" as="geometry" />
        </mxCell>
        <mxCell id="QYia8BqHug6JZ5yJNUc--30" value="Apellidos" style="ellipse;whiteSpace=wrap;html=1;align=center;" parent="1" vertex="1">
          <mxGeometry x="25" y="320" width="100" height="40" as="geometry" />
        </mxCell>
        <mxCell id="QYia8BqHug6JZ5yJNUc--31" value="Dirección" style="ellipse;whiteSpace=wrap;html=1;align=center;" parent="1" vertex="1">
          <mxGeometry x="25" y="370" width="100" height="40" as="geometry" />
        </mxCell>
        <mxCell id="QYia8BqHug6JZ5yJNUc--32" value="Teléfono" style="ellipse;whiteSpace=wrap;html=1;align=center;" parent="1" vertex="1">
          <mxGeometry x="35" y="420" width="100" height="40" as="geometry" />
        </mxCell>
        <mxCell id="QYia8BqHug6JZ5yJNUc--33" value="Correo electrónico" style="ellipse;whiteSpace=wrap;html=1;align=center;" parent="1" vertex="1">
          <mxGeometry x="230" y="470" width="100" height="40" as="geometry" />
        </mxCell>
        <mxCell id="QYia8BqHug6JZ5yJNUc--34" value="" style="endArrow=none;html=1;rounded=0;exitX=0.932;exitY=0.02;exitDx=0;exitDy=0;exitPerimeter=0;entryX=0.5;entryY=1;entryDx=0;entryDy=0;" parent="1" source="QYia8BqHug6JZ5yJNUc--2" target="QYia8BqHug6JZ5yJNUc--27" edge="1">
          <mxGeometry width="50" height="50" relative="1" as="geometry">
            <mxPoint x="415" y="600" as="sourcePoint" />
            <mxPoint x="260" y="340" as="targetPoint" />
          </mxGeometry>
        </mxCell>
        <mxCell id="QYia8BqHug6JZ5yJNUc--35" value="" style="endArrow=none;html=1;rounded=0;entryX=0.64;entryY=1.06;entryDx=0;entryDy=0;entryPerimeter=0;exitX=0.5;exitY=0;exitDx=0;exitDy=0;" parent="1" source="QYia8BqHug6JZ5yJNUc--2" target="QYia8BqHug6JZ5yJNUc--28" edge="1">
          <mxGeometry width="50" height="50" relative="1" as="geometry">
            <mxPoint x="415" y="600" as="sourcePoint" />
            <mxPoint x="465" y="550" as="targetPoint" />
          </mxGeometry>
        </mxCell>
        <mxCell id="QYia8BqHug6JZ5yJNUc--36" value="" style="endArrow=none;html=1;rounded=0;entryX=1;entryY=1;entryDx=0;entryDy=0;" parent="1" target="QYia8BqHug6JZ5yJNUc--30" edge="1">
          <mxGeometry width="50" height="50" relative="1" as="geometry">
            <mxPoint x="165" y="390" as="sourcePoint" />
            <mxPoint x="465" y="550" as="targetPoint" />
          </mxGeometry>
        </mxCell>
        <mxCell id="QYia8BqHug6JZ5yJNUc--37" value="" style="endArrow=none;html=1;rounded=0;entryX=1;entryY=0.5;entryDx=0;entryDy=0;exitX=0;exitY=0.5;exitDx=0;exitDy=0;" parent="1" source="QYia8BqHug6JZ5yJNUc--2" target="QYia8BqHug6JZ5yJNUc--31" edge="1">
          <mxGeometry width="50" height="50" relative="1" as="geometry">
            <mxPoint x="415" y="600" as="sourcePoint" />
            <mxPoint x="465" y="550" as="targetPoint" />
          </mxGeometry>
        </mxCell>
        <mxCell id="QYia8BqHug6JZ5yJNUc--38" value="" style="endArrow=none;html=1;rounded=0;entryX=0;entryY=1;entryDx=0;entryDy=0;exitX=1;exitY=0.5;exitDx=0;exitDy=0;" parent="1" source="QYia8BqHug6JZ5yJNUc--32" target="QYia8BqHug6JZ5yJNUc--2" edge="1">
          <mxGeometry width="50" height="50" relative="1" as="geometry">
            <mxPoint x="415" y="600" as="sourcePoint" />
            <mxPoint x="465" y="550" as="targetPoint" />
          </mxGeometry>
        </mxCell>
        <mxCell id="QYia8BqHug6JZ5yJNUc--39" value="" style="endArrow=none;html=1;rounded=0;entryX=0.5;entryY=1;entryDx=0;entryDy=0;exitX=0.5;exitY=0;exitDx=0;exitDy=0;" parent="1" source="QYia8BqHug6JZ5yJNUc--33" target="QYia8BqHug6JZ5yJNUc--2" edge="1">
          <mxGeometry width="50" height="50" relative="1" as="geometry">
            <mxPoint x="415" y="600" as="sourcePoint" />
            <mxPoint x="465" y="550" as="targetPoint" />
          </mxGeometry>
        </mxCell>
        <mxCell id="n6sJyli5vBg-MJ4isBtV-1" value="N" style="text;html=1;strokeColor=none;fillColor=none;align=center;verticalAlign=middle;whiteSpace=wrap;rounded=0;" parent="1" vertex="1">
          <mxGeometry x="315" y="370" width="60" height="30" as="geometry" />
        </mxCell>
        <mxCell id="n6sJyli5vBg-MJ4isBtV-2" value="1" style="text;html=1;strokeColor=none;fillColor=none;align=center;verticalAlign=middle;whiteSpace=wrap;rounded=0;" parent="1" vertex="1">
          <mxGeometry x="425" y="370" width="60" height="30" as="geometry" />
        </mxCell>
        <mxCell id="YW24YntAn0FaWKWMp5Hn-1" value="Tiene" style="shape=rhombus;perimeter=rhombusPerimeter;whiteSpace=wrap;html=1;align=center;" parent="1" vertex="1">
          <mxGeometry x="145" y="540" width="120" height="60" as="geometry" />
        </mxCell>
        <mxCell id="YW24YntAn0FaWKWMp5Hn-3" value="Historial" style="whiteSpace=wrap;html=1;align=center;" parent="1" vertex="1">
          <mxGeometry x="155" y="650" width="100" height="40" as="geometry" />
        </mxCell>
        <mxCell id="YW24YntAn0FaWKWMp5Hn-4" value="" style="endArrow=none;html=1;rounded=0;entryX=0.5;entryY=1;entryDx=0;entryDy=0;exitX=0.5;exitY=0;exitDx=0;exitDy=0;" parent="1" source="YW24YntAn0FaWKWMp5Hn-1" target="QYia8BqHug6JZ5yJNUc--2" edge="1">
          <mxGeometry width="50" height="50" relative="1" as="geometry">
            <mxPoint x="400" y="580" as="sourcePoint" />
            <mxPoint x="450" y="530" as="targetPoint" />
          </mxGeometry>
        </mxCell>
        <mxCell id="YW24YntAn0FaWKWMp5Hn-5" value="" style="endArrow=none;html=1;rounded=0;entryX=0.5;entryY=1;entryDx=0;entryDy=0;exitX=0.5;exitY=0;exitDx=0;exitDy=0;" parent="1" source="YW24YntAn0FaWKWMp5Hn-3" target="YW24YntAn0FaWKWMp5Hn-1" edge="1">
          <mxGeometry width="50" height="50" relative="1" as="geometry">
            <mxPoint x="400" y="580" as="sourcePoint" />
            <mxPoint x="450" y="530" as="targetPoint" />
          </mxGeometry>
        </mxCell>
        <mxCell id="YW24YntAn0FaWKWMp5Hn-6" value="Fecha alquiler" style="ellipse;whiteSpace=wrap;html=1;align=center;" parent="1" vertex="1">
          <mxGeometry x="90" y="710" width="100" height="40" as="geometry" />
        </mxCell>
        <mxCell id="YW24YntAn0FaWKWMp5Hn-7" value="Fecha límite" style="ellipse;whiteSpace=wrap;html=1;align=center;" parent="1" vertex="1">
          <mxGeometry x="230" y="710" width="100" height="40" as="geometry" />
        </mxCell>
        <mxCell id="YW24YntAn0FaWKWMp5Hn-8" value="Fecha devolución" style="ellipse;whiteSpace=wrap;html=1;align=center;" parent="1" vertex="1">
          <mxGeometry x="35" y="650" width="100" height="40" as="geometry" />
        </mxCell>
        <mxCell id="YW24YntAn0FaWKWMp5Hn-9" value="" style="endArrow=none;html=1;rounded=0;exitX=1;exitY=0.5;exitDx=0;exitDy=0;entryX=0;entryY=0.5;entryDx=0;entryDy=0;" parent="1" source="YW24YntAn0FaWKWMp5Hn-8" target="YW24YntAn0FaWKWMp5Hn-3" edge="1">
          <mxGeometry width="50" height="50" relative="1" as="geometry">
            <mxPoint x="400" y="580" as="sourcePoint" />
            <mxPoint x="450" y="530" as="targetPoint" />
          </mxGeometry>
        </mxCell>
        <mxCell id="YW24YntAn0FaWKWMp5Hn-10" value="" style="endArrow=none;html=1;rounded=0;entryX=0.5;entryY=1;entryDx=0;entryDy=0;exitX=0.5;exitY=0;exitDx=0;exitDy=0;" parent="1" source="YW24YntAn0FaWKWMp5Hn-6" target="YW24YntAn0FaWKWMp5Hn-3" edge="1">
          <mxGeometry width="50" height="50" relative="1" as="geometry">
            <mxPoint x="400" y="580" as="sourcePoint" />
            <mxPoint x="450" y="530" as="targetPoint" />
          </mxGeometry>
        </mxCell>
        <mxCell id="YW24YntAn0FaWKWMp5Hn-11" value="" style="endArrow=none;html=1;rounded=0;entryX=1;entryY=0.5;entryDx=0;entryDy=0;" parent="1" source="YW24YntAn0FaWKWMp5Hn-7" target="YW24YntAn0FaWKWMp5Hn-3" edge="1">
          <mxGeometry width="50" height="50" relative="1" as="geometry">
            <mxPoint x="400" y="580" as="sourcePoint" />
            <mxPoint x="450" y="530" as="targetPoint" />
          </mxGeometry>
        </mxCell>
        <mxCell id="YW24YntAn0FaWKWMp5Hn-12" value="1" style="text;html=1;strokeColor=none;fillColor=none;align=center;verticalAlign=middle;whiteSpace=wrap;rounded=0;" parent="1" vertex="1">
          <mxGeometry x="155" y="510" width="60" height="30" as="geometry" />
        </mxCell>
        <mxCell id="YW24YntAn0FaWKWMp5Hn-13" value="1" style="text;html=1;strokeColor=none;fillColor=none;align=center;verticalAlign=middle;whiteSpace=wrap;rounded=0;" parent="1" vertex="1">
          <mxGeometry x="150" y="590" width="60" height="30" as="geometry" />
        </mxCell>
        <mxCell id="YW24YntAn0FaWKWMp5Hn-14" value="" style="endArrow=none;html=1;rounded=0;entryX=0.5;entryY=1;entryDx=0;entryDy=0;exitX=1;exitY=0.5;exitDx=0;exitDy=0;" parent="1" source="YW24YntAn0FaWKWMp5Hn-1" target="QYia8BqHug6JZ5yJNUc--1" edge="1">
          <mxGeometry width="50" height="50" relative="1" as="geometry">
            <mxPoint x="400" y="580" as="sourcePoint" />
            <mxPoint x="450" y="530" as="targetPoint" />
            <Array as="points">
              <mxPoint x="605" y="570" />
            </Array>
          </mxGeometry>
        </mxCell>
      </root>
    </mxGraphModel>
  </diagram>
</mxfile>
